<svg xmlns="http://www.w3.org/2000/svg" width="682.667" height="682.667" version="1.0" viewBox="0 0 512 512"><path d="M16.7 9.4c-5.5 2-10.3 6.1-13.4 11.4L.5 25.5.2 69.7-.1 114h496.2l-.3-44.3-.3-44.2-2.8-4.7c-3.1-5.3-7.9-9.4-13.4-11.4-5.6-2-457-2-462.6 0m39.6 29.9c14.8 6.2 19.5 26.2 9 37.8C51.5 92.3 28 86 23.8 65.9c-2.2-10.5 3.5-21.4 13.6-26 4.9-2.2 14.3-2.5 18.9-.6m58.9 2.2c6.9 4.9 10.1 10.4 10.6 17.9.5 8-1 12.7-5.7 17.9-14.7 16.4-41.6 6.2-41.4-15.8.1-7 2.3-12.3 7.5-17.2 5.1-4.9 9.3-6.4 17.5-6 6.1.2 7.8.7 11.5 3.2m50.6-1.9c4.7 1.9 9.8 6.8 12.5 11.9 4.6 8.6 2 21.7-5.5 28-7 5.9-17.1 7.5-25.6 4-5.2-2.1-11.4-9-13-14.3-2.6-8.6 0-19.4 6-24.9 6.5-6 17.6-8.1 25.6-4.7m294.3 4.2c7.9 4.1 11.4 10.2 11.4 19.7 0 6.2-.4 7.8-3 12-2.1 3.5-4.5 5.6-8 7.4l-4.9 2.6H237.5l-4-2.2C222 77.1 218 65.1 223.4 53.4c2.5-5.3 6.9-9.4 12.1-11.2 2-.7 38.5-1.1 111.1-1.1l108.2-.1z"/><path d="M42.3 55.5c-7 4.9-.6 16.5 7.4 13.4 5.6-2.1 7.1-8.2 2.8-12.4-2.8-2.9-7-3.2-10.2-1M97.7 55.2c-7 5.4-1.2 16.6 7.2 13.7 5.4-1.9 6.8-7.5 3-12.3-2.3-2.9-7.3-3.6-10.2-1.4M151.2 56.3c-1.3 1.3-2.2 3.6-2.2 5.3.1 8 10.1 10.7 14.6 4 4.8-7.5-6.3-15.8-12.4-9.3M239.2 59.2c-1.8 1.8-1.4 6.3.6 8.1 1.7 1.6 10.5 1.7 106.3 1.7 92.9 0 104.7-.2 106.7-1.6 2.4-1.7 3-6.2 1-8.2-1.7-1.7-212.9-1.7-214.6 0M.2 308.7l.3 177.8 2.8 4.7c3.1 5.3 7.9 9.4 13.4 11.4 3.1 1.1 41.5 1.3 216.8 1.4h213L403 460.5c-23.9-24-45-44.5-46.8-45.7-3.1-1.9-4.3-2-13.5-1.4-27.7 1.7-50.2-6.1-68.6-23.8-16.1-15.6-24.3-31.9-27.1-54.3-.8-6.1-.7-8.8.5-12.8 3-10.5 15-17.3 25.6-14.5 3.8 1 7 3.8 22.4 19.1 13.4 13.2 18.7 17.9 20.5 17.9 1.7 0 6.8-4.4 19.2-16.7 9.2-9.2 17.1-17.6 17.4-18.6.5-1.5-3.2-5.8-16.9-19.6-9.6-9.7-18.1-19-18.9-20.6-2.5-4.9-2.9-9.8-1.4-14.7 1.9-6.4 4.9-10.3 10.3-13.5 3.9-2.3 5.6-2.6 12.3-2.5 32.2.4 64 22.6 76.9 53.7 5.3 12.7 6.5 19.3 6.3 36.5-.1 11.5.3 16.2 1.4 18.5.7 1.6 17.4 19 36.9 38.5l35.5 35.5V131H0zm167.5-161.1c4.4 2.2 5.8 4.3 10.4 16.7 2 5.6 4.3 10.3 5.1 10.5.7.2 3.3 1.2 5.8 2.3l4.5 2 9.8-4.5c15.1-7 19.9-6.3 30.5 4.8 6.4 6.7 8.8 12.2 7.6 17.3-.4 1.5-2.7 6.9-5 11.9l-4.3 9.2 2.4 5.9 2.4 5.8 9.5 3.6c12.2 4.6 14.4 6.1 16.7 11.5 1.7 3.7 1.9 5.7 1.3 12.1-.8 9.8-3.2 15.6-7.6 18.3-1.8 1.1-7.3 3.4-12.3 5l-9 3-2.2 5.9c-1.3 3.2-2.3 6.3-2.3 6.9s2 5.2 4.5 10.3c6.9 14.1 6.1 18.4-5.5 29.3-5.7 5.3-7.7 6.6-11.3 7.1-5.3.8-6.4.5-18-4.6l-8.8-4-6 2.3-5.9 2.3-3.1 8.7c-6.1 16.9-8.5 18.8-23.7 18.8-15.5 0-18.4-2.2-24.1-18l-3.6-10.1-6-2.5-6-2.4-9.6 4.5c-14.9 6.9-20.2 6.1-30.3-4.5-9.4-9.8-9.9-14.4-3.1-28.9l4.6-9.7-2.6-5.6c-2.4-5.3-3-5.8-8.1-7.7-3-1.2-5.7-2.1-6-2.1s-2.9-1.1-5.9-2.5c-7.3-3.5-9.5-7.3-10.2-17.3-1.1-15.9 2.5-21.1 18.3-26.7 6.5-2.3 10.8-4.4 11.1-5.4.2-.9 1.3-3.5 2.4-5.9L76 217l-4.3-9.3c-5.5-11.7-6-13.8-4.7-18.7 1.5-5.6 11.7-16.3 17.5-18.6 5.8-2.2 9.7-1.5 21.2 3.7l9.2 4.1 4.3-2c2.4-1.1 5-2.2 5.9-2.5s3-4.5 4.9-9.9c5.9-16.5 7.6-17.8 23.3-17.8 8.1 0 11.8.4 14.4 1.6"/><path d="m154.1 162.9-5.4.6-3.1 9.7c-3.5 10.8-6.6 15-12.5 16.9-2 .7-5.7 2.2-8.3 3.5-6.7 3.4-10.2 3-21.8-2.2-5.6-2.5-10.7-4.3-11.5-4.1-.7.3-2.5 2.1-3.9 4l-2.7 3.5 5.1 9.4c6.1 11.4 6.3 14.8 2 25.1-5.9 13.9-6.1 14.1-20 19.1l-9.5 3.4v11.5l9.5 3c5.2 1.6 10.7 3.8 12.1 4.8 3.4 2.4 10.9 19.8 10.9 25.3 0 2.5-1.6 7.2-4.5 13.4C88 315 86 319.6 86 320c0 .5 1.8 2.2 4 4l3.9 3.1 9.6-5.1c6-3.1 10.9-5 13-5 5.4 0 21.1 6.8 24.4 10.5 1.7 2 4.2 7.2 6.1 12.9l3.2 9.6h10.5l3.7-10.4c4.4-12.2 6.2-14.3 16.6-18.7 11.8-5 14.4-5 26.7.6l10.4 4.8 3.4-3.3c1.9-1.9 3.5-3.9 3.5-4.6 0-.6-2.2-5.2-4.9-10-6.7-12.2-7-14.4-3.2-23.5 6.7-15.8 6.5-15.7 21.6-20.8l9.5-3.3v-10.5l-10.4-3.7c-6.6-2.4-11.3-4.7-12.9-6.4-2.8-3-9.7-19-9.7-22.5 0-1.2 2.3-7.1 5-13.1l5-10.9-3.8-3.3c-2-1.8-4.2-3.3-4.9-3.4-.6 0-5.3 2-10.4 4.5s-10.5 4.5-12.1 4.5c-4.1 0-20.9-7-23.8-9.9-1.5-1.6-4.2-7-6.4-13.4-2.1-5.9-3.9-10.6-4-10.5 0 .1-2.5.4-5.5.7m15.5 46.2c23.1 7.4 37.4 32.1 32.5 56.2-3.8 18-19.7 33.8-37.9 37.6-32.2 6.7-61.8-21.4-57.2-54.2 1.8-12.2 6.2-20.9 15.3-29.4 12.5-11.9 30.1-15.7 47.3-10.2"/><path d="M145.3 225.4c-22.3 7.3-30 34.4-14.7 51.5 6.7 7.4 13.8 10.6 23.9 10.6 6.7 0 8.9-.4 13.7-2.8 6.2-3 11.5-8.3 15-14.9 1.9-3.6 2.3-5.8 2.3-13.8 0-10.6-1.5-14.7-8.1-22-7.3-8.1-21.8-12-32.1-8.6M333.7 256.7c-.9 1.1-1.7 2.8-1.7 3.9 0 1.2 6.5 8.4 16.6 18.4 20.9 20.8 23.1 24.9 19.8 36-1.5 5-3.2 7.1-19.7 23.8-22.8 22.9-27.2 25.5-39.1 22-3.3-1-7.7-4.7-22.2-19-10-9.8-18.6-17.8-19.3-17.8-.6 0-2 .9-3.2 2.1-1.8 1.8-2 2.8-1.4 7.8.3 3.1 1.3 8.2 2.1 11.3 4.7 18.7 18.3 35.8 35.2 44.6 12.7 6.6 16.4 7.4 38.2 8.1 18.8.7 19.7.8 25 3.5 4.3 2.2 15.6 12.9 53.5 50.5 54.7 54.5 52.4 52.7 67 51.9 9.6-.5 14.3-2.7 20.3-9.1 5.6-6.2 7.2-10.4 7.2-19.6 0-13.8 1.1-12.3-53.9-67.6-46.4-46.5-49-49.3-51.1-55-1.8-4.8-2.1-7.7-1.9-15 .1-5 .1-11.9 0-15.5-1.1-34-28.2-62.2-64.1-66.5-4.7-.6-5.8-.4-7.3 1.2"/></svg>